<mxfile host="65bd71144e">
    <diagram name="Without relations" id="s016e2PxIgkRWfZZPfXT">
        <mxGraphModel dx="656" dy="481" grid="1" gridSize="10" guides="1" tooltips="1" connect="1" arrows="1" fold="1" page="1" pageScale="1" pageWidth="850" pageHeight="1100" math="0" shadow="0" extFonts="Permanent Marker^https://fonts.googleapis.com/css?family=Permanent+Marker">
            <root>
                <mxCell id="pZk6sI3UiPHPqT-6mPBr-0"/>
                <mxCell id="pZk6sI3UiPHPqT-6mPBr-1" parent="pZk6sI3UiPHPqT-6mPBr-0"/>
                <mxCell id="pZk6sI3UiPHPqT-6mPBr-2" value="user_profiles" style="shape=table;startSize=30;container=1;collapsible=1;childLayout=tableLayout;fixedRows=1;rowLines=0;fontStyle=1;align=center;resizeLast=1;" parent="pZk6sI3UiPHPqT-6mPBr-1" vertex="1">
                    <mxGeometry x="40" y="40" width="250" height="230" as="geometry">
                        <mxRectangle x="120" y="460" width="100" height="30" as="alternateBounds"/>
                    </mxGeometry>
                </mxCell>
                <mxCell id="pZk6sI3UiPHPqT-6mPBr-3" value="" style="shape=partialRectangle;collapsible=0;dropTarget=0;pointerEvents=0;fillColor=none;points=[[0,0.5],[1,0.5]];portConstraint=eastwest;top=0;left=0;right=0;bottom=1;" parent="pZk6sI3UiPHPqT-6mPBr-2" vertex="1">
                    <mxGeometry y="30" width="250" height="20" as="geometry"/>
                </mxCell>
                <mxCell id="pZk6sI3UiPHPqT-6mPBr-4" value="PK" style="shape=partialRectangle;overflow=hidden;connectable=0;fillColor=none;top=0;left=0;bottom=0;right=0;fontStyle=1;" parent="pZk6sI3UiPHPqT-6mPBr-3" vertex="1">
                    <mxGeometry width="30" height="20" as="geometry">
                        <mxRectangle width="30" height="20" as="alternateBounds"/>
                    </mxGeometry>
                </mxCell>
                <mxCell id="pZk6sI3UiPHPqT-6mPBr-5" value="id string NOT NULL " style="shape=partialRectangle;overflow=hidden;connectable=0;fillColor=none;top=0;left=0;bottom=0;right=0;align=left;spacingLeft=6;fontStyle=5;" parent="pZk6sI3UiPHPqT-6mPBr-3" vertex="1">
                    <mxGeometry x="30" width="220" height="20" as="geometry">
                        <mxRectangle width="220" height="20" as="alternateBounds"/>
                    </mxGeometry>
                </mxCell>
                <mxCell id="pZk6sI3UiPHPqT-6mPBr-6" value="" style="shape=partialRectangle;collapsible=0;dropTarget=0;pointerEvents=0;fillColor=none;points=[[0,0.5],[1,0.5]];portConstraint=eastwest;top=0;left=0;right=0;bottom=0;" parent="pZk6sI3UiPHPqT-6mPBr-2" vertex="1">
                    <mxGeometry y="50" width="250" height="30" as="geometry"/>
                </mxCell>
                <mxCell id="pZk6sI3UiPHPqT-6mPBr-7" value="" style="shape=partialRectangle;overflow=hidden;connectable=0;fillColor=none;top=0;left=0;bottom=0;right=0;" parent="pZk6sI3UiPHPqT-6mPBr-6" vertex="1">
                    <mxGeometry width="30" height="30" as="geometry">
                        <mxRectangle width="30" height="30" as="alternateBounds"/>
                    </mxGeometry>
                </mxCell>
                <mxCell id="pZk6sI3UiPHPqT-6mPBr-8" value="login string NOT NULL" style="shape=partialRectangle;overflow=hidden;connectable=0;fillColor=none;top=0;left=0;bottom=0;right=0;align=left;spacingLeft=6;" parent="pZk6sI3UiPHPqT-6mPBr-6" vertex="1">
                    <mxGeometry x="30" width="220" height="30" as="geometry">
                        <mxRectangle width="220" height="30" as="alternateBounds"/>
                    </mxGeometry>
                </mxCell>
                <mxCell id="pZk6sI3UiPHPqT-6mPBr-9" value="" style="shape=partialRectangle;collapsible=0;dropTarget=0;pointerEvents=0;fillColor=none;points=[[0,0.5],[1,0.5]];portConstraint=eastwest;top=0;left=0;right=0;bottom=0;" parent="pZk6sI3UiPHPqT-6mPBr-2" vertex="1">
                    <mxGeometry y="80" width="250" height="30" as="geometry"/>
                </mxCell>
                <mxCell id="pZk6sI3UiPHPqT-6mPBr-10" value="" style="shape=partialRectangle;overflow=hidden;connectable=0;fillColor=none;top=0;left=0;bottom=0;right=0;" parent="pZk6sI3UiPHPqT-6mPBr-9" vertex="1">
                    <mxGeometry width="30" height="30" as="geometry">
                        <mxRectangle width="30" height="30" as="alternateBounds"/>
                    </mxGeometry>
                </mxCell>
                <mxCell id="pZk6sI3UiPHPqT-6mPBr-11" value="password string NOT NULL" style="shape=partialRectangle;overflow=hidden;connectable=0;fillColor=none;top=0;left=0;bottom=0;right=0;align=left;spacingLeft=6;" parent="pZk6sI3UiPHPqT-6mPBr-9" vertex="1">
                    <mxGeometry x="30" width="220" height="30" as="geometry">
                        <mxRectangle width="220" height="30" as="alternateBounds"/>
                    </mxGeometry>
                </mxCell>
                <mxCell id="pZk6sI3UiPHPqT-6mPBr-12" value="" style="shape=partialRectangle;collapsible=0;dropTarget=0;pointerEvents=0;fillColor=none;points=[[0,0.5],[1,0.5]];portConstraint=eastwest;top=0;left=0;right=0;bottom=0;" parent="pZk6sI3UiPHPqT-6mPBr-2" vertex="1">
                    <mxGeometry y="110" width="250" height="30" as="geometry"/>
                </mxCell>
                <mxCell id="pZk6sI3UiPHPqT-6mPBr-13" value="" style="shape=partialRectangle;overflow=hidden;connectable=0;fillColor=none;top=0;left=0;bottom=0;right=0;" parent="pZk6sI3UiPHPqT-6mPBr-12" vertex="1">
                    <mxGeometry width="30" height="30" as="geometry">
                        <mxRectangle width="30" height="30" as="alternateBounds"/>
                    </mxGeometry>
                </mxCell>
                <mxCell id="pZk6sI3UiPHPqT-6mPBr-14" value="avatar string" style="shape=partialRectangle;overflow=hidden;connectable=0;fillColor=none;top=0;left=0;bottom=0;right=0;align=left;spacingLeft=6;" parent="pZk6sI3UiPHPqT-6mPBr-12" vertex="1">
                    <mxGeometry x="30" width="220" height="30" as="geometry">
                        <mxRectangle width="220" height="30" as="alternateBounds"/>
                    </mxGeometry>
                </mxCell>
                <mxCell id="pZk6sI3UiPHPqT-6mPBr-15" value="" style="shape=partialRectangle;collapsible=0;dropTarget=0;pointerEvents=0;fillColor=none;points=[[0,0.5],[1,0.5]];portConstraint=eastwest;top=0;left=0;right=0;bottom=0;" parent="pZk6sI3UiPHPqT-6mPBr-2" vertex="1">
                    <mxGeometry y="140" width="250" height="30" as="geometry"/>
                </mxCell>
                <mxCell id="pZk6sI3UiPHPqT-6mPBr-16" value="" style="shape=partialRectangle;overflow=hidden;connectable=0;fillColor=none;top=0;left=0;bottom=0;right=0;" parent="pZk6sI3UiPHPqT-6mPBr-15" vertex="1">
                    <mxGeometry width="30" height="30" as="geometry">
                        <mxRectangle width="30" height="30" as="alternateBounds"/>
                    </mxGeometry>
                </mxCell>
                <mxCell id="pZk6sI3UiPHPqT-6mPBr-17" value="name string" style="shape=partialRectangle;overflow=hidden;connectable=0;fillColor=none;top=0;left=0;bottom=0;right=0;align=left;spacingLeft=6;" parent="pZk6sI3UiPHPqT-6mPBr-15" vertex="1">
                    <mxGeometry x="30" width="220" height="30" as="geometry">
                        <mxRectangle width="220" height="30" as="alternateBounds"/>
                    </mxGeometry>
                </mxCell>
                <mxCell id="pZk6sI3UiPHPqT-6mPBr-18" value="" style="shape=partialRectangle;collapsible=0;dropTarget=0;pointerEvents=0;fillColor=none;points=[[0,0.5],[1,0.5]];portConstraint=eastwest;top=0;left=0;right=0;bottom=0;" parent="pZk6sI3UiPHPqT-6mPBr-2" vertex="1">
                    <mxGeometry y="170" width="250" height="30" as="geometry"/>
                </mxCell>
                <mxCell id="pZk6sI3UiPHPqT-6mPBr-19" value="" style="shape=partialRectangle;overflow=hidden;connectable=0;fillColor=none;top=0;left=0;bottom=0;right=0;" parent="pZk6sI3UiPHPqT-6mPBr-18" vertex="1">
                    <mxGeometry width="30" height="30" as="geometry">
                        <mxRectangle width="30" height="30" as="alternateBounds"/>
                    </mxGeometry>
                </mxCell>
                <mxCell id="pZk6sI3UiPHPqT-6mPBr-20" value="lastname string" style="shape=partialRectangle;overflow=hidden;connectable=0;fillColor=none;top=0;left=0;bottom=0;right=0;align=left;spacingLeft=6;" parent="pZk6sI3UiPHPqT-6mPBr-18" vertex="1">
                    <mxGeometry x="30" width="220" height="30" as="geometry">
                        <mxRectangle width="220" height="30" as="alternateBounds"/>
                    </mxGeometry>
                </mxCell>
                <mxCell id="pZk6sI3UiPHPqT-6mPBr-21" value="" style="shape=partialRectangle;collapsible=0;dropTarget=0;pointerEvents=0;fillColor=none;points=[[0,0.5],[1,0.5]];portConstraint=eastwest;top=0;left=0;right=0;bottom=0;" parent="pZk6sI3UiPHPqT-6mPBr-2" vertex="1">
                    <mxGeometry y="200" width="250" height="30" as="geometry"/>
                </mxCell>
                <mxCell id="pZk6sI3UiPHPqT-6mPBr-22" value="" style="shape=partialRectangle;overflow=hidden;connectable=0;fillColor=none;top=0;left=0;bottom=0;right=0;" parent="pZk6sI3UiPHPqT-6mPBr-21" vertex="1">
                    <mxGeometry width="30" height="30" as="geometry">
                        <mxRectangle width="30" height="30" as="alternateBounds"/>
                    </mxGeometry>
                </mxCell>
                <mxCell id="pZk6sI3UiPHPqT-6mPBr-23" value="personal_id string" style="shape=partialRectangle;overflow=hidden;connectable=0;fillColor=none;top=0;left=0;bottom=0;right=0;align=left;spacingLeft=6;" parent="pZk6sI3UiPHPqT-6mPBr-21" vertex="1">
                    <mxGeometry x="30" width="220" height="30" as="geometry">
                        <mxRectangle width="220" height="30" as="alternateBounds"/>
                    </mxGeometry>
                </mxCell>
                <mxCell id="pZk6sI3UiPHPqT-6mPBr-24" value="flights" style="shape=table;startSize=30;container=1;collapsible=1;childLayout=tableLayout;fixedRows=1;rowLines=0;fontStyle=1;align=center;resizeLast=1;" parent="pZk6sI3UiPHPqT-6mPBr-1" vertex="1">
                    <mxGeometry x="460" y="40" width="250" height="230" as="geometry">
                        <mxRectangle x="120" y="460" width="100" height="30" as="alternateBounds"/>
                    </mxGeometry>
                </mxCell>
                <mxCell id="pZk6sI3UiPHPqT-6mPBr-25" value="" style="shape=partialRectangle;collapsible=0;dropTarget=0;pointerEvents=0;fillColor=none;points=[[0,0.5],[1,0.5]];portConstraint=eastwest;top=0;left=0;right=0;bottom=1;" parent="pZk6sI3UiPHPqT-6mPBr-24" vertex="1">
                    <mxGeometry y="30" width="250" height="20" as="geometry"/>
                </mxCell>
                <mxCell id="pZk6sI3UiPHPqT-6mPBr-26" value="PK" style="shape=partialRectangle;overflow=hidden;connectable=0;fillColor=none;top=0;left=0;bottom=0;right=0;fontStyle=1;" parent="pZk6sI3UiPHPqT-6mPBr-25" vertex="1">
                    <mxGeometry width="30" height="20" as="geometry">
                        <mxRectangle width="30" height="20" as="alternateBounds"/>
                    </mxGeometry>
                </mxCell>
                <mxCell id="pZk6sI3UiPHPqT-6mPBr-27" value="id string NOT NULL " style="shape=partialRectangle;overflow=hidden;connectable=0;fillColor=none;top=0;left=0;bottom=0;right=0;align=left;spacingLeft=6;fontStyle=5;" parent="pZk6sI3UiPHPqT-6mPBr-25" vertex="1">
                    <mxGeometry x="30" width="220" height="20" as="geometry">
                        <mxRectangle width="220" height="20" as="alternateBounds"/>
                    </mxGeometry>
                </mxCell>
                <mxCell id="pZk6sI3UiPHPqT-6mPBr-28" value="" style="shape=partialRectangle;collapsible=0;dropTarget=0;pointerEvents=0;fillColor=none;points=[[0,0.5],[1,0.5]];portConstraint=eastwest;top=0;left=0;right=0;bottom=0;" parent="pZk6sI3UiPHPqT-6mPBr-24" vertex="1">
                    <mxGeometry y="50" width="250" height="30" as="geometry"/>
                </mxCell>
                <mxCell id="pZk6sI3UiPHPqT-6mPBr-29" value="IDX?" style="shape=partialRectangle;overflow=hidden;connectable=0;fillColor=none;top=0;left=0;bottom=0;right=0;" parent="pZk6sI3UiPHPqT-6mPBr-28" vertex="1">
                    <mxGeometry width="30" height="30" as="geometry">
                        <mxRectangle width="30" height="30" as="alternateBounds"/>
                    </mxGeometry>
                </mxCell>
                <mxCell id="pZk6sI3UiPHPqT-6mPBr-30" value="code string NOT NULL" style="shape=partialRectangle;overflow=hidden;connectable=0;fillColor=none;top=0;left=0;bottom=0;right=0;align=left;spacingLeft=6;" parent="pZk6sI3UiPHPqT-6mPBr-28" vertex="1">
                    <mxGeometry x="30" width="220" height="30" as="geometry">
                        <mxRectangle width="220" height="30" as="alternateBounds"/>
                    </mxGeometry>
                </mxCell>
                <mxCell id="pZk6sI3UiPHPqT-6mPBr-31" value="" style="shape=partialRectangle;collapsible=0;dropTarget=0;pointerEvents=0;fillColor=none;points=[[0,0.5],[1,0.5]];portConstraint=eastwest;top=0;left=0;right=0;bottom=0;" parent="pZk6sI3UiPHPqT-6mPBr-24" vertex="1">
                    <mxGeometry y="80" width="250" height="30" as="geometry"/>
                </mxCell>
                <mxCell id="pZk6sI3UiPHPqT-6mPBr-32" value="FK1" style="shape=partialRectangle;overflow=hidden;connectable=0;fillColor=none;top=0;left=0;bottom=0;right=0;" parent="pZk6sI3UiPHPqT-6mPBr-31" vertex="1">
                    <mxGeometry width="30" height="30" as="geometry">
                        <mxRectangle width="30" height="30" as="alternateBounds"/>
                    </mxGeometry>
                </mxCell>
                <mxCell id="pZk6sI3UiPHPqT-6mPBr-33" value="from_airport_id string NOT NULL" style="shape=partialRectangle;overflow=hidden;connectable=0;fillColor=none;top=0;left=0;bottom=0;right=0;align=left;spacingLeft=6;" parent="pZk6sI3UiPHPqT-6mPBr-31" vertex="1">
                    <mxGeometry x="30" width="220" height="30" as="geometry">
                        <mxRectangle width="220" height="30" as="alternateBounds"/>
                    </mxGeometry>
                </mxCell>
                <mxCell id="pZk6sI3UiPHPqT-6mPBr-34" value="" style="shape=partialRectangle;collapsible=0;dropTarget=0;pointerEvents=0;fillColor=none;points=[[0,0.5],[1,0.5]];portConstraint=eastwest;top=0;left=0;right=0;bottom=0;" parent="pZk6sI3UiPHPqT-6mPBr-24" vertex="1">
                    <mxGeometry y="110" width="250" height="30" as="geometry"/>
                </mxCell>
                <mxCell id="pZk6sI3UiPHPqT-6mPBr-35" value="" style="shape=partialRectangle;overflow=hidden;connectable=0;fillColor=none;top=0;left=0;bottom=0;right=0;" parent="pZk6sI3UiPHPqT-6mPBr-34" vertex="1">
                    <mxGeometry width="30" height="30" as="geometry">
                        <mxRectangle width="30" height="30" as="alternateBounds"/>
                    </mxGeometry>
                </mxCell>
                <mxCell id="pZk6sI3UiPHPqT-6mPBr-36" value="from_timestamp timestamp with time zone NOT NULL DEFAULT LOCALTIMESTAMP" style="shape=partialRectangle;overflow=hidden;connectable=0;fillColor=none;top=0;left=0;bottom=0;right=0;align=left;spacingLeft=6;" parent="pZk6sI3UiPHPqT-6mPBr-34" vertex="1">
                    <mxGeometry x="30" width="220" height="30" as="geometry">
                        <mxRectangle width="220" height="30" as="alternateBounds"/>
                    </mxGeometry>
                </mxCell>
                <mxCell id="pZk6sI3UiPHPqT-6mPBr-37" value="" style="shape=partialRectangle;collapsible=0;dropTarget=0;pointerEvents=0;fillColor=none;points=[[0,0.5],[1,0.5]];portConstraint=eastwest;top=0;left=0;right=0;bottom=0;" parent="pZk6sI3UiPHPqT-6mPBr-24" vertex="1">
                    <mxGeometry y="140" width="250" height="30" as="geometry"/>
                </mxCell>
                <mxCell id="pZk6sI3UiPHPqT-6mPBr-38" value="FK2" style="shape=partialRectangle;overflow=hidden;connectable=0;fillColor=none;top=0;left=0;bottom=0;right=0;" parent="pZk6sI3UiPHPqT-6mPBr-37" vertex="1">
                    <mxGeometry width="30" height="30" as="geometry">
                        <mxRectangle width="30" height="30" as="alternateBounds"/>
                    </mxGeometry>
                </mxCell>
                <mxCell id="pZk6sI3UiPHPqT-6mPBr-39" value="to_airport_id string NOT NULL" style="shape=partialRectangle;overflow=hidden;connectable=0;fillColor=none;top=0;left=0;bottom=0;right=0;align=left;spacingLeft=6;" parent="pZk6sI3UiPHPqT-6mPBr-37" vertex="1">
                    <mxGeometry x="30" width="220" height="30" as="geometry">
                        <mxRectangle width="220" height="30" as="alternateBounds"/>
                    </mxGeometry>
                </mxCell>
                <mxCell id="pZk6sI3UiPHPqT-6mPBr-40" value="" style="shape=partialRectangle;collapsible=0;dropTarget=0;pointerEvents=0;fillColor=none;points=[[0,0.5],[1,0.5]];portConstraint=eastwest;top=0;left=0;right=0;bottom=0;" parent="pZk6sI3UiPHPqT-6mPBr-24" vertex="1">
                    <mxGeometry y="170" width="250" height="30" as="geometry"/>
                </mxCell>
                <mxCell id="pZk6sI3UiPHPqT-6mPBr-41" value="" style="shape=partialRectangle;overflow=hidden;connectable=0;fillColor=none;top=0;left=0;bottom=0;right=0;" parent="pZk6sI3UiPHPqT-6mPBr-40" vertex="1">
                    <mxGeometry width="30" height="30" as="geometry">
                        <mxRectangle width="30" height="30" as="alternateBounds"/>
                    </mxGeometry>
                </mxCell>
                <mxCell id="pZk6sI3UiPHPqT-6mPBr-42" value="to_timestamp timestamp with time zone NOT NULL DEFAULT LOCALTIMESTAMP" style="shape=partialRectangle;overflow=hidden;connectable=0;fillColor=none;top=0;left=0;bottom=0;right=0;align=left;spacingLeft=6;" parent="pZk6sI3UiPHPqT-6mPBr-40" vertex="1">
                    <mxGeometry x="30" width="220" height="30" as="geometry">
                        <mxRectangle width="220" height="30" as="alternateBounds"/>
                    </mxGeometry>
                </mxCell>
                <mxCell id="pZk6sI3UiPHPqT-6mPBr-43" value="" style="shape=partialRectangle;collapsible=0;dropTarget=0;pointerEvents=0;fillColor=none;points=[[0,0.5],[1,0.5]];portConstraint=eastwest;top=0;left=0;right=0;bottom=0;" parent="pZk6sI3UiPHPqT-6mPBr-24" vertex="1">
                    <mxGeometry y="200" width="250" height="30" as="geometry"/>
                </mxCell>
                <mxCell id="pZk6sI3UiPHPqT-6mPBr-44" value="IDX" style="shape=partialRectangle;overflow=hidden;connectable=0;fillColor=none;top=0;left=0;bottom=0;right=0;" parent="pZk6sI3UiPHPqT-6mPBr-43" vertex="1">
                    <mxGeometry width="30" height="30" as="geometry">
                        <mxRectangle width="30" height="30" as="alternateBounds"/>
                    </mxGeometry>
                </mxCell>
                <mxCell id="pZk6sI3UiPHPqT-6mPBr-45" value="status string NOT NULL" style="shape=partialRectangle;overflow=hidden;connectable=0;fillColor=none;top=0;left=0;bottom=0;right=0;align=left;spacingLeft=6;" parent="pZk6sI3UiPHPqT-6mPBr-43" vertex="1">
                    <mxGeometry x="30" width="220" height="30" as="geometry">
                        <mxRectangle width="220" height="30" as="alternateBounds"/>
                    </mxGeometry>
                </mxCell>
                <mxCell id="pZk6sI3UiPHPqT-6mPBr-46" value="seats" style="shape=table;startSize=30;container=1;collapsible=1;childLayout=tableLayout;fixedRows=1;rowLines=0;fontStyle=1;align=center;resizeLast=1;" parent="pZk6sI3UiPHPqT-6mPBr-1" vertex="1">
                    <mxGeometry x="40" y="330" width="330" height="200" as="geometry">
                        <mxRectangle x="120" y="460" width="100" height="30" as="alternateBounds"/>
                    </mxGeometry>
                </mxCell>
                <mxCell id="pZk6sI3UiPHPqT-6mPBr-47" value="" style="shape=partialRectangle;collapsible=0;dropTarget=0;pointerEvents=0;fillColor=none;points=[[0,0.5],[1,0.5]];portConstraint=eastwest;top=0;left=0;right=0;bottom=1;" parent="pZk6sI3UiPHPqT-6mPBr-46" vertex="1">
                    <mxGeometry y="30" width="330" height="20" as="geometry"/>
                </mxCell>
                <mxCell id="pZk6sI3UiPHPqT-6mPBr-48" value="PK" style="shape=partialRectangle;overflow=hidden;connectable=0;fillColor=none;top=0;left=0;bottom=0;right=0;fontStyle=1;" parent="pZk6sI3UiPHPqT-6mPBr-47" vertex="1">
                    <mxGeometry width="30" height="20" as="geometry">
                        <mxRectangle width="30" height="20" as="alternateBounds"/>
                    </mxGeometry>
                </mxCell>
                <mxCell id="pZk6sI3UiPHPqT-6mPBr-49" value="id string NOT NULL " style="shape=partialRectangle;overflow=hidden;connectable=0;fillColor=none;top=0;left=0;bottom=0;right=0;align=left;spacingLeft=6;fontStyle=5;" parent="pZk6sI3UiPHPqT-6mPBr-47" vertex="1">
                    <mxGeometry x="30" width="300" height="20" as="geometry">
                        <mxRectangle width="300" height="20" as="alternateBounds"/>
                    </mxGeometry>
                </mxCell>
                <mxCell id="pZk6sI3UiPHPqT-6mPBr-50" value="" style="shape=partialRectangle;collapsible=0;dropTarget=0;pointerEvents=0;fillColor=none;points=[[0,0.5],[1,0.5]];portConstraint=eastwest;top=0;left=0;right=0;bottom=0;" parent="pZk6sI3UiPHPqT-6mPBr-46" vertex="1">
                    <mxGeometry y="50" width="330" height="30" as="geometry"/>
                </mxCell>
                <mxCell id="pZk6sI3UiPHPqT-6mPBr-51" value="IDX?" style="shape=partialRectangle;overflow=hidden;connectable=0;fillColor=none;top=0;left=0;bottom=0;right=0;" parent="pZk6sI3UiPHPqT-6mPBr-50" vertex="1">
                    <mxGeometry width="30" height="30" as="geometry">
                        <mxRectangle width="30" height="30" as="alternateBounds"/>
                    </mxGeometry>
                </mxCell>
                <mxCell id="pZk6sI3UiPHPqT-6mPBr-52" value="code string NOT NULL" style="shape=partialRectangle;overflow=hidden;connectable=0;fillColor=none;top=0;left=0;bottom=0;right=0;align=left;spacingLeft=6;" parent="pZk6sI3UiPHPqT-6mPBr-50" vertex="1">
                    <mxGeometry x="30" width="300" height="30" as="geometry">
                        <mxRectangle width="300" height="30" as="alternateBounds"/>
                    </mxGeometry>
                </mxCell>
                <mxCell id="pZk6sI3UiPHPqT-6mPBr-53" value="" style="shape=partialRectangle;collapsible=0;dropTarget=0;pointerEvents=0;fillColor=none;points=[[0,0.5],[1,0.5]];portConstraint=eastwest;top=0;left=0;right=0;bottom=0;" parent="pZk6sI3UiPHPqT-6mPBr-46" vertex="1">
                    <mxGeometry y="80" width="330" height="30" as="geometry"/>
                </mxCell>
                <mxCell id="pZk6sI3UiPHPqT-6mPBr-54" value="IDX1" style="shape=partialRectangle;overflow=hidden;connectable=0;fillColor=none;top=0;left=0;bottom=0;right=0;" parent="pZk6sI3UiPHPqT-6mPBr-53" vertex="1">
                    <mxGeometry width="30" height="30" as="geometry">
                        <mxRectangle width="30" height="30" as="alternateBounds"/>
                    </mxGeometry>
                </mxCell>
                <mxCell id="pZk6sI3UiPHPqT-6mPBr-55" value="position string NOT NULL" style="shape=partialRectangle;overflow=hidden;connectable=0;fillColor=none;top=0;left=0;bottom=0;right=0;align=left;spacingLeft=6;" parent="pZk6sI3UiPHPqT-6mPBr-53" vertex="1">
                    <mxGeometry x="30" width="300" height="30" as="geometry">
                        <mxRectangle width="300" height="30" as="alternateBounds"/>
                    </mxGeometry>
                </mxCell>
                <mxCell id="pZk6sI3UiPHPqT-6mPBr-56" value="" style="shape=partialRectangle;collapsible=0;dropTarget=0;pointerEvents=0;fillColor=none;points=[[0,0.5],[1,0.5]];portConstraint=eastwest;top=0;left=0;right=0;bottom=0;" parent="pZk6sI3UiPHPqT-6mPBr-46" vertex="1">
                    <mxGeometry y="110" width="330" height="30" as="geometry"/>
                </mxCell>
                <mxCell id="pZk6sI3UiPHPqT-6mPBr-57" value="IDX2" style="shape=partialRectangle;overflow=hidden;connectable=0;fillColor=none;top=0;left=0;bottom=0;right=0;" parent="pZk6sI3UiPHPqT-6mPBr-56" vertex="1">
                    <mxGeometry width="30" height="30" as="geometry">
                        <mxRectangle width="30" height="30" as="alternateBounds"/>
                    </mxGeometry>
                </mxCell>
                <mxCell id="pZk6sI3UiPHPqT-6mPBr-58" value="price decimal NOT NULL" style="shape=partialRectangle;overflow=hidden;connectable=0;fillColor=none;top=0;left=0;bottom=0;right=0;align=left;spacingLeft=6;" parent="pZk6sI3UiPHPqT-6mPBr-56" vertex="1">
                    <mxGeometry x="30" width="300" height="30" as="geometry">
                        <mxRectangle width="300" height="30" as="alternateBounds"/>
                    </mxGeometry>
                </mxCell>
                <mxCell id="pZk6sI3UiPHPqT-6mPBr-59" value="" style="shape=partialRectangle;collapsible=0;dropTarget=0;pointerEvents=0;fillColor=none;points=[[0,0.5],[1,0.5]];portConstraint=eastwest;top=0;left=0;right=0;bottom=0;" parent="pZk6sI3UiPHPqT-6mPBr-46" vertex="1">
                    <mxGeometry y="140" width="330" height="30" as="geometry"/>
                </mxCell>
                <mxCell id="pZk6sI3UiPHPqT-6mPBr-60" value="" style="shape=partialRectangle;overflow=hidden;connectable=0;fillColor=none;top=0;left=0;bottom=0;right=0;" parent="pZk6sI3UiPHPqT-6mPBr-59" vertex="1">
                    <mxGeometry width="30" height="30" as="geometry">
                        <mxRectangle width="30" height="30" as="alternateBounds"/>
                    </mxGeometry>
                </mxCell>
                <mxCell id="pZk6sI3UiPHPqT-6mPBr-61" value="booking_status string NOT NULL DEFAULT &quot;free&quot;" style="shape=partialRectangle;overflow=hidden;connectable=0;fillColor=none;top=0;left=0;bottom=0;right=0;align=left;spacingLeft=6;" parent="pZk6sI3UiPHPqT-6mPBr-59" vertex="1">
                    <mxGeometry x="30" width="300" height="30" as="geometry">
                        <mxRectangle width="300" height="30" as="alternateBounds"/>
                    </mxGeometry>
                </mxCell>
                <mxCell id="pZk6sI3UiPHPqT-6mPBr-62" value="" style="shape=partialRectangle;collapsible=0;dropTarget=0;pointerEvents=0;fillColor=none;points=[[0,0.5],[1,0.5]];portConstraint=eastwest;top=0;left=0;right=0;bottom=0;" parent="pZk6sI3UiPHPqT-6mPBr-46" vertex="1">
                    <mxGeometry y="170" width="330" height="30" as="geometry"/>
                </mxCell>
                <mxCell id="pZk6sI3UiPHPqT-6mPBr-63" value="" style="shape=partialRectangle;overflow=hidden;connectable=0;fillColor=none;top=0;left=0;bottom=0;right=0;" parent="pZk6sI3UiPHPqT-6mPBr-62" vertex="1">
                    <mxGeometry width="30" height="30" as="geometry">
                        <mxRectangle width="30" height="30" as="alternateBounds"/>
                    </mxGeometry>
                </mxCell>
                <mxCell id="pZk6sI3UiPHPqT-6mPBr-64" value="type string NOT NULL DEFAULT &quot;Economy&quot;" style="shape=partialRectangle;overflow=hidden;connectable=0;fillColor=none;top=0;left=0;bottom=0;right=0;align=left;spacingLeft=6;" parent="pZk6sI3UiPHPqT-6mPBr-62" vertex="1">
                    <mxGeometry x="30" width="300" height="30" as="geometry">
                        <mxRectangle width="300" height="30" as="alternateBounds"/>
                    </mxGeometry>
                </mxCell>
                <mxCell id="pZk6sI3UiPHPqT-6mPBr-65" value="seat_options" style="shape=table;startSize=30;container=1;collapsible=1;childLayout=tableLayout;fixedRows=1;rowLines=0;fontStyle=1;align=center;resizeLast=1;" parent="pZk6sI3UiPHPqT-6mPBr-1" vertex="1">
                    <mxGeometry x="40" y="600" width="330" height="140" as="geometry">
                        <mxRectangle x="120" y="460" width="100" height="30" as="alternateBounds"/>
                    </mxGeometry>
                </mxCell>
                <mxCell id="pZk6sI3UiPHPqT-6mPBr-66" value="" style="shape=partialRectangle;collapsible=0;dropTarget=0;pointerEvents=0;fillColor=none;points=[[0,0.5],[1,0.5]];portConstraint=eastwest;top=0;left=0;right=0;bottom=1;" parent="pZk6sI3UiPHPqT-6mPBr-65" vertex="1">
                    <mxGeometry y="30" width="330" height="20" as="geometry"/>
                </mxCell>
                <mxCell id="pZk6sI3UiPHPqT-6mPBr-67" value="PK" style="shape=partialRectangle;overflow=hidden;connectable=0;fillColor=none;top=0;left=0;bottom=0;right=0;fontStyle=1;" parent="pZk6sI3UiPHPqT-6mPBr-66" vertex="1">
                    <mxGeometry width="30" height="20" as="geometry">
                        <mxRectangle width="30" height="20" as="alternateBounds"/>
                    </mxGeometry>
                </mxCell>
                <mxCell id="pZk6sI3UiPHPqT-6mPBr-68" value="id string NOT NULL " style="shape=partialRectangle;overflow=hidden;connectable=0;fillColor=none;top=0;left=0;bottom=0;right=0;align=left;spacingLeft=6;fontStyle=5;" parent="pZk6sI3UiPHPqT-6mPBr-66" vertex="1">
                    <mxGeometry x="30" width="300" height="20" as="geometry">
                        <mxRectangle width="300" height="20" as="alternateBounds"/>
                    </mxGeometry>
                </mxCell>
                <mxCell id="pZk6sI3UiPHPqT-6mPBr-69" value="" style="shape=partialRectangle;collapsible=0;dropTarget=0;pointerEvents=0;fillColor=none;points=[[0,0.5],[1,0.5]];portConstraint=eastwest;top=0;left=0;right=0;bottom=0;" parent="pZk6sI3UiPHPqT-6mPBr-65" vertex="1">
                    <mxGeometry y="50" width="330" height="30" as="geometry"/>
                </mxCell>
                <mxCell id="pZk6sI3UiPHPqT-6mPBr-70" value="" style="shape=partialRectangle;overflow=hidden;connectable=0;fillColor=none;top=0;left=0;bottom=0;right=0;" parent="pZk6sI3UiPHPqT-6mPBr-69" vertex="1">
                    <mxGeometry width="30" height="30" as="geometry">
                        <mxRectangle width="30" height="30" as="alternateBounds"/>
                    </mxGeometry>
                </mxCell>
                <mxCell id="pZk6sI3UiPHPqT-6mPBr-71" value="name string NOT NULL" style="shape=partialRectangle;overflow=hidden;connectable=0;fillColor=none;top=0;left=0;bottom=0;right=0;align=left;spacingLeft=6;" parent="pZk6sI3UiPHPqT-6mPBr-69" vertex="1">
                    <mxGeometry x="30" width="300" height="30" as="geometry">
                        <mxRectangle width="300" height="30" as="alternateBounds"/>
                    </mxGeometry>
                </mxCell>
                <mxCell id="pZk6sI3UiPHPqT-6mPBr-72" value="" style="shape=partialRectangle;collapsible=0;dropTarget=0;pointerEvents=0;fillColor=none;points=[[0,0.5],[1,0.5]];portConstraint=eastwest;top=0;left=0;right=0;bottom=0;" parent="pZk6sI3UiPHPqT-6mPBr-65" vertex="1">
                    <mxGeometry y="80" width="330" height="30" as="geometry"/>
                </mxCell>
                <mxCell id="pZk6sI3UiPHPqT-6mPBr-73" value="" style="shape=partialRectangle;overflow=hidden;connectable=0;fillColor=none;top=0;left=0;bottom=0;right=0;" parent="pZk6sI3UiPHPqT-6mPBr-72" vertex="1">
                    <mxGeometry width="30" height="30" as="geometry">
                        <mxRectangle width="30" height="30" as="alternateBounds"/>
                    </mxGeometry>
                </mxCell>
                <mxCell id="pZk6sI3UiPHPqT-6mPBr-74" value="description string" style="shape=partialRectangle;overflow=hidden;connectable=0;fillColor=none;top=0;left=0;bottom=0;right=0;align=left;spacingLeft=6;" parent="pZk6sI3UiPHPqT-6mPBr-72" vertex="1">
                    <mxGeometry x="30" width="300" height="30" as="geometry">
                        <mxRectangle width="300" height="30" as="alternateBounds"/>
                    </mxGeometry>
                </mxCell>
                <mxCell id="pZk6sI3UiPHPqT-6mPBr-75" value="" style="shape=partialRectangle;collapsible=0;dropTarget=0;pointerEvents=0;fillColor=none;points=[[0,0.5],[1,0.5]];portConstraint=eastwest;top=0;left=0;right=0;bottom=0;" parent="pZk6sI3UiPHPqT-6mPBr-65" vertex="1">
                    <mxGeometry y="110" width="330" height="30" as="geometry"/>
                </mxCell>
                <mxCell id="pZk6sI3UiPHPqT-6mPBr-76" value="" style="shape=partialRectangle;overflow=hidden;connectable=0;fillColor=none;top=0;left=0;bottom=0;right=0;" parent="pZk6sI3UiPHPqT-6mPBr-75" vertex="1">
                    <mxGeometry width="30" height="30" as="geometry">
                        <mxRectangle width="30" height="30" as="alternateBounds"/>
                    </mxGeometry>
                </mxCell>
                <mxCell id="pZk6sI3UiPHPqT-6mPBr-77" value="price decimal" style="shape=partialRectangle;overflow=hidden;connectable=0;fillColor=none;top=0;left=0;bottom=0;right=0;align=left;spacingLeft=6;" parent="pZk6sI3UiPHPqT-6mPBr-75" vertex="1">
                    <mxGeometry x="30" width="300" height="30" as="geometry">
                        <mxRectangle width="300" height="30" as="alternateBounds"/>
                    </mxGeometry>
                </mxCell>
                <mxCell id="pZk6sI3UiPHPqT-6mPBr-78" value="seats_seat_options" style="shape=table;startSize=30;container=1;collapsible=1;childLayout=tableLayout;fixedRows=1;rowLines=0;fontStyle=1;align=center;resizeLast=1;" parent="pZk6sI3UiPHPqT-6mPBr-1" vertex="1">
                    <mxGeometry x="460" y="460" width="300" height="90" as="geometry"/>
                </mxCell>
                <mxCell id="pZk6sI3UiPHPqT-6mPBr-79" value="" style="shape=tableRow;horizontal=0;startSize=0;swimlaneHead=0;swimlaneBody=0;fillColor=none;collapsible=0;dropTarget=0;points=[[0,0.5],[1,0.5]];portConstraint=eastwest;top=0;left=0;right=0;bottom=0;" parent="pZk6sI3UiPHPqT-6mPBr-78" vertex="1">
                    <mxGeometry y="30" width="300" height="30" as="geometry"/>
                </mxCell>
                <mxCell id="pZk6sI3UiPHPqT-6mPBr-80" value="PK,FK1" style="shape=partialRectangle;connectable=0;fillColor=none;top=0;left=0;bottom=0;right=0;fontStyle=1;overflow=hidden;" parent="pZk6sI3UiPHPqT-6mPBr-79" vertex="1">
                    <mxGeometry width="60" height="30" as="geometry">
                        <mxRectangle width="60" height="30" as="alternateBounds"/>
                    </mxGeometry>
                </mxCell>
                <mxCell id="pZk6sI3UiPHPqT-6mPBr-81" value="seats_id string NOT NULL" style="shape=partialRectangle;connectable=0;fillColor=none;top=0;left=0;bottom=0;right=0;align=left;spacingLeft=6;fontStyle=5;overflow=hidden;" parent="pZk6sI3UiPHPqT-6mPBr-79" vertex="1">
                    <mxGeometry x="60" width="240" height="30" as="geometry">
                        <mxRectangle width="240" height="30" as="alternateBounds"/>
                    </mxGeometry>
                </mxCell>
                <mxCell id="pZk6sI3UiPHPqT-6mPBr-82" value="" style="shape=tableRow;horizontal=0;startSize=0;swimlaneHead=0;swimlaneBody=0;fillColor=none;collapsible=0;dropTarget=0;points=[[0,0.5],[1,0.5]];portConstraint=eastwest;top=0;left=0;right=0;bottom=1;" parent="pZk6sI3UiPHPqT-6mPBr-78" vertex="1">
                    <mxGeometry y="60" width="300" height="30" as="geometry"/>
                </mxCell>
                <mxCell id="pZk6sI3UiPHPqT-6mPBr-83" value="PK,FK2" style="shape=partialRectangle;connectable=0;fillColor=none;top=0;left=0;bottom=0;right=0;fontStyle=1;overflow=hidden;" parent="pZk6sI3UiPHPqT-6mPBr-82" vertex="1">
                    <mxGeometry width="60" height="30" as="geometry">
                        <mxRectangle width="60" height="30" as="alternateBounds"/>
                    </mxGeometry>
                </mxCell>
                <mxCell id="pZk6sI3UiPHPqT-6mPBr-84" value="seat_options_id string NOT NULL" style="shape=partialRectangle;connectable=0;fillColor=none;top=0;left=0;bottom=0;right=0;align=left;spacingLeft=6;fontStyle=5;overflow=hidden;" parent="pZk6sI3UiPHPqT-6mPBr-82" vertex="1">
                    <mxGeometry x="60" width="240" height="30" as="geometry">
                        <mxRectangle width="240" height="30" as="alternateBounds"/>
                    </mxGeometry>
                </mxCell>
                <mxCell id="pZk6sI3UiPHPqT-6mPBr-87" value="booking" style="shape=table;startSize=30;container=1;collapsible=1;childLayout=tableLayout;fixedRows=1;rowLines=0;fontStyle=1;align=center;resizeLast=1;" parent="pZk6sI3UiPHPqT-6mPBr-1" vertex="1">
                    <mxGeometry x="40" y="860" width="300" height="210" as="geometry"/>
                </mxCell>
                <mxCell id="pZk6sI3UiPHPqT-6mPBr-88" value="" style="shape=tableRow;horizontal=0;startSize=0;swimlaneHead=0;swimlaneBody=0;fillColor=none;collapsible=0;dropTarget=0;points=[[0,0.5],[1,0.5]];portConstraint=eastwest;top=0;left=0;right=0;bottom=1;" parent="pZk6sI3UiPHPqT-6mPBr-87" vertex="1">
                    <mxGeometry y="30" width="300" height="30" as="geometry"/>
                </mxCell>
                <mxCell id="pZk6sI3UiPHPqT-6mPBr-89" value="PK" style="shape=partialRectangle;connectable=0;fillColor=none;top=0;left=0;bottom=0;right=0;fontStyle=1;overflow=hidden;" parent="pZk6sI3UiPHPqT-6mPBr-88" vertex="1">
                    <mxGeometry width="30" height="30" as="geometry">
                        <mxRectangle width="30" height="30" as="alternateBounds"/>
                    </mxGeometry>
                </mxCell>
                <mxCell id="pZk6sI3UiPHPqT-6mPBr-90" value="id string NOT NULL" style="shape=partialRectangle;connectable=0;fillColor=none;top=0;left=0;bottom=0;right=0;align=left;spacingLeft=6;fontStyle=5;overflow=hidden;" parent="pZk6sI3UiPHPqT-6mPBr-88" vertex="1">
                    <mxGeometry x="30" width="270" height="30" as="geometry">
                        <mxRectangle width="270" height="30" as="alternateBounds"/>
                    </mxGeometry>
                </mxCell>
                <mxCell id="pZk6sI3UiPHPqT-6mPBr-91" value="" style="shape=tableRow;horizontal=0;startSize=0;swimlaneHead=0;swimlaneBody=0;fillColor=none;collapsible=0;dropTarget=0;points=[[0,0.5],[1,0.5]];portConstraint=eastwest;top=0;left=0;right=0;bottom=0;" parent="pZk6sI3UiPHPqT-6mPBr-87" vertex="1">
                    <mxGeometry y="60" width="300" height="30" as="geometry"/>
                </mxCell>
                <mxCell id="pZk6sI3UiPHPqT-6mPBr-92" value="FK1" style="shape=partialRectangle;connectable=0;fillColor=none;top=0;left=0;bottom=0;right=0;editable=1;overflow=hidden;" parent="pZk6sI3UiPHPqT-6mPBr-91" vertex="1">
                    <mxGeometry width="30" height="30" as="geometry">
                        <mxRectangle width="30" height="30" as="alternateBounds"/>
                    </mxGeometry>
                </mxCell>
                <mxCell id="pZk6sI3UiPHPqT-6mPBr-93" value="flight_id string NOT NULL" style="shape=partialRectangle;connectable=0;fillColor=none;top=0;left=0;bottom=0;right=0;align=left;spacingLeft=6;overflow=hidden;" parent="pZk6sI3UiPHPqT-6mPBr-91" vertex="1">
                    <mxGeometry x="30" width="270" height="30" as="geometry">
                        <mxRectangle width="270" height="30" as="alternateBounds"/>
                    </mxGeometry>
                </mxCell>
                <mxCell id="pZk6sI3UiPHPqT-6mPBr-94" value="" style="shape=tableRow;horizontal=0;startSize=0;swimlaneHead=0;swimlaneBody=0;fillColor=none;collapsible=0;dropTarget=0;points=[[0,0.5],[1,0.5]];portConstraint=eastwest;top=0;left=0;right=0;bottom=0;" parent="pZk6sI3UiPHPqT-6mPBr-87" vertex="1">
                    <mxGeometry y="90" width="300" height="30" as="geometry"/>
                </mxCell>
                <mxCell id="pZk6sI3UiPHPqT-6mPBr-95" value="FK2" style="shape=partialRectangle;connectable=0;fillColor=none;top=0;left=0;bottom=0;right=0;editable=1;overflow=hidden;" parent="pZk6sI3UiPHPqT-6mPBr-94" vertex="1">
                    <mxGeometry width="30" height="30" as="geometry">
                        <mxRectangle width="30" height="30" as="alternateBounds"/>
                    </mxGeometry>
                </mxCell>
                <mxCell id="pZk6sI3UiPHPqT-6mPBr-96" value="seat_id  string NOT NULL" style="shape=partialRectangle;connectable=0;fillColor=none;top=0;left=0;bottom=0;right=0;align=left;spacingLeft=6;overflow=hidden;" parent="pZk6sI3UiPHPqT-6mPBr-94" vertex="1">
                    <mxGeometry x="30" width="270" height="30" as="geometry">
                        <mxRectangle width="270" height="30" as="alternateBounds"/>
                    </mxGeometry>
                </mxCell>
                <mxCell id="pZk6sI3UiPHPqT-6mPBr-97" value="" style="shape=tableRow;horizontal=0;startSize=0;swimlaneHead=0;swimlaneBody=0;fillColor=none;collapsible=0;dropTarget=0;points=[[0,0.5],[1,0.5]];portConstraint=eastwest;top=0;left=0;right=0;bottom=0;" parent="pZk6sI3UiPHPqT-6mPBr-87" vertex="1">
                    <mxGeometry y="120" width="300" height="30" as="geometry"/>
                </mxCell>
                <mxCell id="pZk6sI3UiPHPqT-6mPBr-98" value="FK3" style="shape=partialRectangle;connectable=0;fillColor=none;top=0;left=0;bottom=0;right=0;editable=1;overflow=hidden;" parent="pZk6sI3UiPHPqT-6mPBr-97" vertex="1">
                    <mxGeometry width="30" height="30" as="geometry">
                        <mxRectangle width="30" height="30" as="alternateBounds"/>
                    </mxGeometry>
                </mxCell>
                <mxCell id="pZk6sI3UiPHPqT-6mPBr-99" value="transaction_id string" style="shape=partialRectangle;connectable=0;fillColor=none;top=0;left=0;bottom=0;right=0;align=left;spacingLeft=6;overflow=hidden;" parent="pZk6sI3UiPHPqT-6mPBr-97" vertex="1">
                    <mxGeometry x="30" width="270" height="30" as="geometry">
                        <mxRectangle width="270" height="30" as="alternateBounds"/>
                    </mxGeometry>
                </mxCell>
                <mxCell id="cIZ2HjYOKrV_53F5OBGw-1" value="" style="shape=tableRow;horizontal=0;startSize=0;swimlaneHead=0;swimlaneBody=0;fillColor=none;collapsible=0;dropTarget=0;points=[[0,0.5],[1,0.5]];portConstraint=eastwest;top=0;left=0;right=0;bottom=0;" parent="pZk6sI3UiPHPqT-6mPBr-87" vertex="1">
                    <mxGeometry y="150" width="300" height="30" as="geometry"/>
                </mxCell>
                <mxCell id="cIZ2HjYOKrV_53F5OBGw-2" value="FK4" style="shape=partialRectangle;connectable=0;fillColor=none;top=0;left=0;bottom=0;right=0;editable=1;overflow=hidden;" parent="cIZ2HjYOKrV_53F5OBGw-1" vertex="1">
                    <mxGeometry width="30" height="30" as="geometry">
                        <mxRectangle width="30" height="30" as="alternateBounds"/>
                    </mxGeometry>
                </mxCell>
                <mxCell id="cIZ2HjYOKrV_53F5OBGw-3" value="user_profile_id string NOT NULL" style="shape=partialRectangle;connectable=0;fillColor=none;top=0;left=0;bottom=0;right=0;align=left;spacingLeft=6;overflow=hidden;" parent="cIZ2HjYOKrV_53F5OBGw-1" vertex="1">
                    <mxGeometry x="30" width="270" height="30" as="geometry">
                        <mxRectangle width="270" height="30" as="alternateBounds"/>
                    </mxGeometry>
                </mxCell>
                <mxCell id="pZk6sI3UiPHPqT-6mPBr-100" value="" style="shape=tableRow;horizontal=0;startSize=0;swimlaneHead=0;swimlaneBody=0;fillColor=none;collapsible=0;dropTarget=0;points=[[0,0.5],[1,0.5]];portConstraint=eastwest;top=0;left=0;right=0;bottom=0;" parent="pZk6sI3UiPHPqT-6mPBr-87" vertex="1">
                    <mxGeometry y="180" width="300" height="30" as="geometry"/>
                </mxCell>
                <mxCell id="pZk6sI3UiPHPqT-6mPBr-101" value="" style="shape=partialRectangle;connectable=0;fillColor=none;top=0;left=0;bottom=0;right=0;editable=1;overflow=hidden;" parent="pZk6sI3UiPHPqT-6mPBr-100" vertex="1">
                    <mxGeometry width="30" height="30" as="geometry">
                        <mxRectangle width="30" height="30" as="alternateBounds"/>
                    </mxGeometry>
                </mxCell>
                <mxCell id="pZk6sI3UiPHPqT-6mPBr-102" value="status string NOT NULL DEFAULT &quot;pending&quot;" style="shape=partialRectangle;connectable=0;fillColor=none;top=0;left=0;bottom=0;right=0;align=left;spacingLeft=6;overflow=hidden;" parent="pZk6sI3UiPHPqT-6mPBr-100" vertex="1">
                    <mxGeometry x="30" width="270" height="30" as="geometry">
                        <mxRectangle width="270" height="30" as="alternateBounds"/>
                    </mxGeometry>
                </mxCell>
                <mxCell id="pZk6sI3UiPHPqT-6mPBr-103" value="booking_seat_options" style="shape=table;startSize=30;container=1;collapsible=1;childLayout=tableLayout;fixedRows=1;rowLines=0;fontStyle=1;align=center;resizeLast=1;" parent="pZk6sI3UiPHPqT-6mPBr-1" vertex="1">
                    <mxGeometry x="460" y="720" width="300" height="90" as="geometry"/>
                </mxCell>
                <mxCell id="pZk6sI3UiPHPqT-6mPBr-104" value="" style="shape=tableRow;horizontal=0;startSize=0;swimlaneHead=0;swimlaneBody=0;fillColor=none;collapsible=0;dropTarget=0;points=[[0,0.5],[1,0.5]];portConstraint=eastwest;top=0;left=0;right=0;bottom=0;" parent="pZk6sI3UiPHPqT-6mPBr-103" vertex="1">
                    <mxGeometry y="30" width="300" height="30" as="geometry"/>
                </mxCell>
                <mxCell id="pZk6sI3UiPHPqT-6mPBr-105" value="PK,FK1" style="shape=partialRectangle;connectable=0;fillColor=none;top=0;left=0;bottom=0;right=0;fontStyle=1;overflow=hidden;" parent="pZk6sI3UiPHPqT-6mPBr-104" vertex="1">
                    <mxGeometry width="60" height="30" as="geometry">
                        <mxRectangle width="60" height="30" as="alternateBounds"/>
                    </mxGeometry>
                </mxCell>
                <mxCell id="pZk6sI3UiPHPqT-6mPBr-106" value="booking_id string NOT NULL" style="shape=partialRectangle;connectable=0;fillColor=none;top=0;left=0;bottom=0;right=0;align=left;spacingLeft=6;fontStyle=5;overflow=hidden;" parent="pZk6sI3UiPHPqT-6mPBr-104" vertex="1">
                    <mxGeometry x="60" width="240" height="30" as="geometry">
                        <mxRectangle width="240" height="30" as="alternateBounds"/>
                    </mxGeometry>
                </mxCell>
                <mxCell id="pZk6sI3UiPHPqT-6mPBr-107" value="" style="shape=tableRow;horizontal=0;startSize=0;swimlaneHead=0;swimlaneBody=0;fillColor=none;collapsible=0;dropTarget=0;points=[[0,0.5],[1,0.5]];portConstraint=eastwest;top=0;left=0;right=0;bottom=1;" parent="pZk6sI3UiPHPqT-6mPBr-103" vertex="1">
                    <mxGeometry y="60" width="300" height="30" as="geometry"/>
                </mxCell>
                <mxCell id="pZk6sI3UiPHPqT-6mPBr-108" value="PK,FK2" style="shape=partialRectangle;connectable=0;fillColor=none;top=0;left=0;bottom=0;right=0;fontStyle=1;overflow=hidden;" parent="pZk6sI3UiPHPqT-6mPBr-107" vertex="1">
                    <mxGeometry width="60" height="30" as="geometry">
                        <mxRectangle width="60" height="30" as="alternateBounds"/>
                    </mxGeometry>
                </mxCell>
                <mxCell id="pZk6sI3UiPHPqT-6mPBr-109" value="seat_options_id string NOT NULL" style="shape=partialRectangle;connectable=0;fillColor=none;top=0;left=0;bottom=0;right=0;align=left;spacingLeft=6;fontStyle=5;overflow=hidden;" parent="pZk6sI3UiPHPqT-6mPBr-107" vertex="1">
                    <mxGeometry x="60" width="240" height="30" as="geometry">
                        <mxRectangle width="240" height="30" as="alternateBounds"/>
                    </mxGeometry>
                </mxCell>
                <mxCell id="pZk6sI3UiPHPqT-6mPBr-114" value="transactions" style="shape=table;startSize=30;container=1;collapsible=1;childLayout=tableLayout;fixedRows=1;rowLines=0;fontStyle=1;align=center;resizeLast=1;" parent="pZk6sI3UiPHPqT-6mPBr-1" vertex="1">
                    <mxGeometry x="460" y="910" width="230" height="150" as="geometry"/>
                </mxCell>
                <mxCell id="pZk6sI3UiPHPqT-6mPBr-115" value="" style="shape=tableRow;horizontal=0;startSize=0;swimlaneHead=0;swimlaneBody=0;fillColor=none;collapsible=0;dropTarget=0;points=[[0,0.5],[1,0.5]];portConstraint=eastwest;top=0;left=0;right=0;bottom=1;" parent="pZk6sI3UiPHPqT-6mPBr-114" vertex="1">
                    <mxGeometry y="30" width="230" height="30" as="geometry"/>
                </mxCell>
                <mxCell id="pZk6sI3UiPHPqT-6mPBr-116" value="PK" style="shape=partialRectangle;connectable=0;fillColor=none;top=0;left=0;bottom=0;right=0;fontStyle=1;overflow=hidden;" parent="pZk6sI3UiPHPqT-6mPBr-115" vertex="1">
                    <mxGeometry width="30" height="30" as="geometry">
                        <mxRectangle width="30" height="30" as="alternateBounds"/>
                    </mxGeometry>
                </mxCell>
                <mxCell id="pZk6sI3UiPHPqT-6mPBr-117" value="id string NOT NULL" style="shape=partialRectangle;connectable=0;fillColor=none;top=0;left=0;bottom=0;right=0;align=left;spacingLeft=6;fontStyle=5;overflow=hidden;" parent="pZk6sI3UiPHPqT-6mPBr-115" vertex="1">
                    <mxGeometry x="30" width="200" height="30" as="geometry">
                        <mxRectangle width="200" height="30" as="alternateBounds"/>
                    </mxGeometry>
                </mxCell>
                <mxCell id="pZk6sI3UiPHPqT-6mPBr-118" value="" style="shape=tableRow;horizontal=0;startSize=0;swimlaneHead=0;swimlaneBody=0;fillColor=none;collapsible=0;dropTarget=0;points=[[0,0.5],[1,0.5]];portConstraint=eastwest;top=0;left=0;right=0;bottom=0;" parent="pZk6sI3UiPHPqT-6mPBr-114" vertex="1">
                    <mxGeometry y="60" width="230" height="30" as="geometry"/>
                </mxCell>
                <mxCell id="pZk6sI3UiPHPqT-6mPBr-119" value="" style="shape=partialRectangle;connectable=0;fillColor=none;top=0;left=0;bottom=0;right=0;editable=1;overflow=hidden;" parent="pZk6sI3UiPHPqT-6mPBr-118" vertex="1">
                    <mxGeometry width="30" height="30" as="geometry">
                        <mxRectangle width="30" height="30" as="alternateBounds"/>
                    </mxGeometry>
                </mxCell>
                <mxCell id="pZk6sI3UiPHPqT-6mPBr-120" value="amount decimal NOT NULL" style="shape=partialRectangle;connectable=0;fillColor=none;top=0;left=0;bottom=0;right=0;align=left;spacingLeft=6;overflow=hidden;" parent="pZk6sI3UiPHPqT-6mPBr-118" vertex="1">
                    <mxGeometry x="30" width="200" height="30" as="geometry">
                        <mxRectangle width="200" height="30" as="alternateBounds"/>
                    </mxGeometry>
                </mxCell>
                <mxCell id="pZk6sI3UiPHPqT-6mPBr-121" value="" style="shape=tableRow;horizontal=0;startSize=0;swimlaneHead=0;swimlaneBody=0;fillColor=none;collapsible=0;dropTarget=0;points=[[0,0.5],[1,0.5]];portConstraint=eastwest;top=0;left=0;right=0;bottom=0;" parent="pZk6sI3UiPHPqT-6mPBr-114" vertex="1">
                    <mxGeometry y="90" width="230" height="30" as="geometry"/>
                </mxCell>
                <mxCell id="pZk6sI3UiPHPqT-6mPBr-122" value="" style="shape=partialRectangle;connectable=0;fillColor=none;top=0;left=0;bottom=0;right=0;editable=1;overflow=hidden;" parent="pZk6sI3UiPHPqT-6mPBr-121" vertex="1">
                    <mxGeometry width="30" height="30" as="geometry">
                        <mxRectangle width="30" height="30" as="alternateBounds"/>
                    </mxGeometry>
                </mxCell>
                <mxCell id="pZk6sI3UiPHPqT-6mPBr-123" value="created_at  timestamp with time zone NOT NULL DEFAULT LOCALTIMESTAMP" style="shape=partialRectangle;connectable=0;fillColor=none;top=0;left=0;bottom=0;right=0;align=left;spacingLeft=6;overflow=hidden;" parent="pZk6sI3UiPHPqT-6mPBr-121" vertex="1">
                    <mxGeometry x="30" width="200" height="30" as="geometry">
                        <mxRectangle width="200" height="30" as="alternateBounds"/>
                    </mxGeometry>
                </mxCell>
                <mxCell id="pZk6sI3UiPHPqT-6mPBr-124" value="" style="shape=tableRow;horizontal=0;startSize=0;swimlaneHead=0;swimlaneBody=0;fillColor=none;collapsible=0;dropTarget=0;points=[[0,0.5],[1,0.5]];portConstraint=eastwest;top=0;left=0;right=0;bottom=0;" parent="pZk6sI3UiPHPqT-6mPBr-114" vertex="1">
                    <mxGeometry y="120" width="230" height="30" as="geometry"/>
                </mxCell>
                <mxCell id="pZk6sI3UiPHPqT-6mPBr-125" value="FK" style="shape=partialRectangle;connectable=0;fillColor=none;top=0;left=0;bottom=0;right=0;editable=1;overflow=hidden;" parent="pZk6sI3UiPHPqT-6mPBr-124" vertex="1">
                    <mxGeometry width="30" height="30" as="geometry">
                        <mxRectangle width="30" height="30" as="alternateBounds"/>
                    </mxGeometry>
                </mxCell>
                <mxCell id="pZk6sI3UiPHPqT-6mPBr-126" value="user_profile_id" style="shape=partialRectangle;connectable=0;fillColor=none;top=0;left=0;bottom=0;right=0;align=left;spacingLeft=6;overflow=hidden;" parent="pZk6sI3UiPHPqT-6mPBr-124" vertex="1">
                    <mxGeometry x="30" width="200" height="30" as="geometry">
                        <mxRectangle width="200" height="30" as="alternateBounds"/>
                    </mxGeometry>
                </mxCell>
                <mxCell id="cIZ2HjYOKrV_53F5OBGw-7" value="airports" style="shape=table;startSize=30;container=1;collapsible=1;childLayout=tableLayout;fixedRows=1;rowLines=0;fontStyle=1;align=center;resizeLast=1;" parent="pZk6sI3UiPHPqT-6mPBr-1" vertex="1">
                    <mxGeometry x="880" y="40" width="250" height="200" as="geometry">
                        <mxRectangle x="120" y="460" width="100" height="30" as="alternateBounds"/>
                    </mxGeometry>
                </mxCell>
                <mxCell id="cIZ2HjYOKrV_53F5OBGw-8" value="" style="shape=partialRectangle;collapsible=0;dropTarget=0;pointerEvents=0;fillColor=none;points=[[0,0.5],[1,0.5]];portConstraint=eastwest;top=0;left=0;right=0;bottom=1;" parent="cIZ2HjYOKrV_53F5OBGw-7" vertex="1">
                    <mxGeometry y="30" width="250" height="20" as="geometry"/>
                </mxCell>
                <mxCell id="cIZ2HjYOKrV_53F5OBGw-9" value="PK" style="shape=partialRectangle;overflow=hidden;connectable=0;fillColor=none;top=0;left=0;bottom=0;right=0;fontStyle=1;" parent="cIZ2HjYOKrV_53F5OBGw-8" vertex="1">
                    <mxGeometry width="50" height="20" as="geometry">
                        <mxRectangle width="50" height="20" as="alternateBounds"/>
                    </mxGeometry>
                </mxCell>
                <mxCell id="cIZ2HjYOKrV_53F5OBGw-10" value="id string NOT NULL " style="shape=partialRectangle;overflow=hidden;connectable=0;fillColor=none;top=0;left=0;bottom=0;right=0;align=left;spacingLeft=6;fontStyle=5;" parent="cIZ2HjYOKrV_53F5OBGw-8" vertex="1">
                    <mxGeometry x="50" width="200" height="20" as="geometry">
                        <mxRectangle width="200" height="20" as="alternateBounds"/>
                    </mxGeometry>
                </mxCell>
                <mxCell id="cIZ2HjYOKrV_53F5OBGw-11" value="" style="shape=partialRectangle;collapsible=0;dropTarget=0;pointerEvents=0;fillColor=none;points=[[0,0.5],[1,0.5]];portConstraint=eastwest;top=0;left=0;right=0;bottom=0;" parent="cIZ2HjYOKrV_53F5OBGw-7" vertex="1">
                    <mxGeometry y="50" width="250" height="30" as="geometry"/>
                </mxCell>
                <mxCell id="cIZ2HjYOKrV_53F5OBGw-12" value="IDX?" style="shape=partialRectangle;overflow=hidden;connectable=0;fillColor=none;top=0;left=0;bottom=0;right=0;" parent="cIZ2HjYOKrV_53F5OBGw-11" vertex="1">
                    <mxGeometry width="50" height="30" as="geometry">
                        <mxRectangle width="50" height="30" as="alternateBounds"/>
                    </mxGeometry>
                </mxCell>
                <mxCell id="cIZ2HjYOKrV_53F5OBGw-13" value="code string NOT NULL" style="shape=partialRectangle;overflow=hidden;connectable=0;fillColor=none;top=0;left=0;bottom=0;right=0;align=left;spacingLeft=6;" parent="cIZ2HjYOKrV_53F5OBGw-11" vertex="1">
                    <mxGeometry x="50" width="200" height="30" as="geometry">
                        <mxRectangle width="200" height="30" as="alternateBounds"/>
                    </mxGeometry>
                </mxCell>
                <mxCell id="cIZ2HjYOKrV_53F5OBGw-14" value="" style="shape=partialRectangle;collapsible=0;dropTarget=0;pointerEvents=0;fillColor=none;points=[[0,0.5],[1,0.5]];portConstraint=eastwest;top=0;left=0;right=0;bottom=0;" parent="cIZ2HjYOKrV_53F5OBGw-7" vertex="1">
                    <mxGeometry y="80" width="250" height="30" as="geometry"/>
                </mxCell>
                <mxCell id="cIZ2HjYOKrV_53F5OBGw-15" value="" style="shape=partialRectangle;overflow=hidden;connectable=0;fillColor=none;top=0;left=0;bottom=0;right=0;" parent="cIZ2HjYOKrV_53F5OBGw-14" vertex="1">
                    <mxGeometry width="50" height="30" as="geometry">
                        <mxRectangle width="50" height="30" as="alternateBounds"/>
                    </mxGeometry>
                </mxCell>
                <mxCell id="cIZ2HjYOKrV_53F5OBGw-16" value="name string NOT NULL" style="shape=partialRectangle;overflow=hidden;connectable=0;fillColor=none;top=0;left=0;bottom=0;right=0;align=left;spacingLeft=6;" parent="cIZ2HjYOKrV_53F5OBGw-14" vertex="1">
                    <mxGeometry x="50" width="200" height="30" as="geometry">
                        <mxRectangle width="200" height="30" as="alternateBounds"/>
                    </mxGeometry>
                </mxCell>
                <mxCell id="cIZ2HjYOKrV_53F5OBGw-17" value="" style="shape=partialRectangle;collapsible=0;dropTarget=0;pointerEvents=0;fillColor=none;points=[[0,0.5],[1,0.5]];portConstraint=eastwest;top=0;left=0;right=0;bottom=0;" parent="cIZ2HjYOKrV_53F5OBGw-7" vertex="1">
                    <mxGeometry y="110" width="250" height="30" as="geometry"/>
                </mxCell>
                <mxCell id="cIZ2HjYOKrV_53F5OBGw-18" value="" style="shape=partialRectangle;overflow=hidden;connectable=0;fillColor=none;top=0;left=0;bottom=0;right=0;" parent="cIZ2HjYOKrV_53F5OBGw-17" vertex="1">
                    <mxGeometry width="50" height="30" as="geometry">
                        <mxRectangle width="50" height="30" as="alternateBounds"/>
                    </mxGeometry>
                </mxCell>
                <mxCell id="cIZ2HjYOKrV_53F5OBGw-19" value="description text" style="shape=partialRectangle;overflow=hidden;connectable=0;fillColor=none;top=0;left=0;bottom=0;right=0;align=left;spacingLeft=6;" parent="cIZ2HjYOKrV_53F5OBGw-17" vertex="1">
                    <mxGeometry x="50" width="200" height="30" as="geometry">
                        <mxRectangle width="200" height="30" as="alternateBounds"/>
                    </mxGeometry>
                </mxCell>
                <mxCell id="cIZ2HjYOKrV_53F5OBGw-20" value="" style="shape=partialRectangle;collapsible=0;dropTarget=0;pointerEvents=0;fillColor=none;points=[[0,0.5],[1,0.5]];portConstraint=eastwest;top=0;left=0;right=0;bottom=0;" parent="cIZ2HjYOKrV_53F5OBGw-7" vertex="1">
                    <mxGeometry y="140" width="250" height="30" as="geometry"/>
                </mxCell>
                <mxCell id="cIZ2HjYOKrV_53F5OBGw-21" value="IDX1" style="shape=partialRectangle;overflow=hidden;connectable=0;fillColor=none;top=0;left=0;bottom=0;right=0;" parent="cIZ2HjYOKrV_53F5OBGw-20" vertex="1">
                    <mxGeometry width="50" height="30" as="geometry">
                        <mxRectangle width="50" height="30" as="alternateBounds"/>
                    </mxGeometry>
                </mxCell>
                <mxCell id="cIZ2HjYOKrV_53F5OBGw-22" value="country string NOT NULL" style="shape=partialRectangle;overflow=hidden;connectable=0;fillColor=none;top=0;left=0;bottom=0;right=0;align=left;spacingLeft=6;" parent="cIZ2HjYOKrV_53F5OBGw-20" vertex="1">
                    <mxGeometry x="50" width="200" height="30" as="geometry">
                        <mxRectangle width="200" height="30" as="alternateBounds"/>
                    </mxGeometry>
                </mxCell>
                <mxCell id="cIZ2HjYOKrV_53F5OBGw-23" value="" style="shape=partialRectangle;collapsible=0;dropTarget=0;pointerEvents=0;fillColor=none;points=[[0,0.5],[1,0.5]];portConstraint=eastwest;top=0;left=0;right=0;bottom=0;" parent="cIZ2HjYOKrV_53F5OBGw-7" vertex="1">
                    <mxGeometry y="170" width="250" height="30" as="geometry"/>
                </mxCell>
                <mxCell id="cIZ2HjYOKrV_53F5OBGw-24" value="IDX1" style="shape=partialRectangle;overflow=hidden;connectable=0;fillColor=none;top=0;left=0;bottom=0;right=0;" parent="cIZ2HjYOKrV_53F5OBGw-23" vertex="1">
                    <mxGeometry width="50" height="30" as="geometry">
                        <mxRectangle width="50" height="30" as="alternateBounds"/>
                    </mxGeometry>
                </mxCell>
                <mxCell id="cIZ2HjYOKrV_53F5OBGw-25" value="city string NOT NULL" style="shape=partialRectangle;overflow=hidden;connectable=0;fillColor=none;top=0;left=0;bottom=0;right=0;align=left;spacingLeft=6;" parent="cIZ2HjYOKrV_53F5OBGw-23" vertex="1">
                    <mxGeometry x="50" width="200" height="30" as="geometry">
                        <mxRectangle width="200" height="30" as="alternateBounds"/>
                    </mxGeometry>
                </mxCell>
                <mxCell id="M5_pud3TxYhiRC5SyUK_-0" value="fligts_seats" style="shape=table;startSize=30;container=1;collapsible=1;childLayout=tableLayout;fixedRows=1;rowLines=0;fontStyle=1;align=center;resizeLast=1;" parent="pZk6sI3UiPHPqT-6mPBr-1" vertex="1">
                    <mxGeometry x="460" y="330" width="300" height="90" as="geometry"/>
                </mxCell>
                <mxCell id="M5_pud3TxYhiRC5SyUK_-1" value="" style="shape=tableRow;horizontal=0;startSize=0;swimlaneHead=0;swimlaneBody=0;fillColor=none;collapsible=0;dropTarget=0;points=[[0,0.5],[1,0.5]];portConstraint=eastwest;top=0;left=0;right=0;bottom=0;" parent="M5_pud3TxYhiRC5SyUK_-0" vertex="1">
                    <mxGeometry y="30" width="300" height="30" as="geometry"/>
                </mxCell>
                <mxCell id="M5_pud3TxYhiRC5SyUK_-2" value="PK,FK1" style="shape=partialRectangle;connectable=0;fillColor=none;top=0;left=0;bottom=0;right=0;fontStyle=1;overflow=hidden;" parent="M5_pud3TxYhiRC5SyUK_-1" vertex="1">
                    <mxGeometry width="60" height="30" as="geometry">
                        <mxRectangle width="60" height="30" as="alternateBounds"/>
                    </mxGeometry>
                </mxCell>
                <mxCell id="M5_pud3TxYhiRC5SyUK_-3" value="flights_id string NOT NULL" style="shape=partialRectangle;connectable=0;fillColor=none;top=0;left=0;bottom=0;right=0;align=left;spacingLeft=6;fontStyle=5;overflow=hidden;" parent="M5_pud3TxYhiRC5SyUK_-1" vertex="1">
                    <mxGeometry x="60" width="240" height="30" as="geometry">
                        <mxRectangle width="240" height="30" as="alternateBounds"/>
                    </mxGeometry>
                </mxCell>
                <mxCell id="M5_pud3TxYhiRC5SyUK_-4" value="" style="shape=tableRow;horizontal=0;startSize=0;swimlaneHead=0;swimlaneBody=0;fillColor=none;collapsible=0;dropTarget=0;points=[[0,0.5],[1,0.5]];portConstraint=eastwest;top=0;left=0;right=0;bottom=1;" parent="M5_pud3TxYhiRC5SyUK_-0" vertex="1">
                    <mxGeometry y="60" width="300" height="30" as="geometry"/>
                </mxCell>
                <mxCell id="M5_pud3TxYhiRC5SyUK_-5" value="PK,FK2" style="shape=partialRectangle;connectable=0;fillColor=none;top=0;left=0;bottom=0;right=0;fontStyle=1;overflow=hidden;" parent="M5_pud3TxYhiRC5SyUK_-4" vertex="1">
                    <mxGeometry width="60" height="30" as="geometry">
                        <mxRectangle width="60" height="30" as="alternateBounds"/>
                    </mxGeometry>
                </mxCell>
                <mxCell id="M5_pud3TxYhiRC5SyUK_-6" value="seats_id string NOT NULL" style="shape=partialRectangle;connectable=0;fillColor=none;top=0;left=0;bottom=0;right=0;align=left;spacingLeft=6;fontStyle=5;overflow=hidden;" parent="M5_pud3TxYhiRC5SyUK_-4" vertex="1">
                    <mxGeometry x="60" width="240" height="30" as="geometry">
                        <mxRectangle width="240" height="30" as="alternateBounds"/>
                    </mxGeometry>
                </mxCell>
            </root>
        </mxGraphModel>
    </diagram>
</mxfile>